<svg xmlns="http://www.w3.org/2000/svg" xmlns:xlink="http://www.w3.org/1999/xlink" width="24" height="24" viewBox="0 0 24 24">
    <defs>
        <path id="a" d="M20.7 12.7l-6 6c-.2.2-.4.3-.7.3-.3 0-.5-.1-.7-.3-.4-.4-.4-1 0-1.4l4.3-4.3H4c-.6 0-1-.4-1-1s.4-1 1-1h13.6l-4.3-4.3c-.4-.4-.4-1 0-1.4.4-.4 1-.4 1.4 0l6 6c.1.1.2.2.2.3.1.2.1.5 0 .8 0 .1-.1.2-.2.3z"/>
    </defs>
    <g fill="none" fill-rule="evenodd">
        <mask id="b" fill="#fff">
            <use xlink:href="#a"/>
        </mask>
        <use fill="#000" fill-rule="nonzero" xlink:href="#a"/>
        <g fill="#000" mask="url(#b)">
            <path d="M0 0h24v24H0z"/>
        </g>
    </g>
</svg>
