<svg xmlns="http://www.w3.org/2000/svg" xmlns:xlink="http://www.w3.org/1999/xlink" width="24" height="24" viewBox="0 0 24 24">
    <defs>
        <path id="a" d="M14.6 21.5C14 22.5 13 23 12 23c-.5 0-1-.1-1.5-.4-.5-.3-.8-.6-1.1-1.1-.3-.5-.1-1.1.4-1.4.5-.3 1.1-.1 1.4.4.1.1.2.3.4.4.5.3 1.1.1 1.4-.4.3-.5.9-.6 1.4-.4.5.2.5.9.2 1.4zM23 17c0 .6-.4 1-1 1H2c-.6 0-1-.4-1-1s.4-1 1-1c1.1 0 2-.9 2-2V9c0-4.4 3.6-8 8-8s8 3.6 8 8v5c0 1.1.9 2 2 2 .6 0 1 .4 1 1zm-4.5-1c-.3-.6-.5-1.3-.5-2V9c0-3.3-2.7-6-6-6S6 5.7 6 9v5c0 .7-.2 1.4-.5 2h13z"/>
    </defs>
    <g fill="none" fill-rule="evenodd">
        <mask id="b" fill="#fff">
            <use xlink:href="#a"/>
        </mask>
        <use fill="#000" fill-rule="nonzero" xlink:href="#a"/>
        <g fill="#000" mask="url(#b)">
            <path d="M0 0h24v24H0z"/>
        </g>
    </g>
</svg>
