<svg xmlns="http://www.w3.org/2000/svg" xmlns:xlink="http://www.w3.org/1999/xlink" width="24" height="24" viewBox="0 0 24 24">
    <defs>
        <path id="a" d="M21.233 3.881C20.077 2.693 18.535 2 16.898 2a6.268 6.268 0 0 0-4.433 1.881l-.385.396-.385-.396a6.104 6.104 0 0 0-8.768 0C1.674 5.07 1 6.752 1 8.436c0 1.683.674 3.366 1.83 4.554l8.48 8.713c.192.198.385.297.674.297.289 0 .481-.099.674-.297l8.479-8.713c1.156-1.188 1.83-2.871 1.83-4.554.193-1.684-.481-3.367-1.734-4.555zm-1.349 7.723l-7.804 8.02-7.804-8.02c-.867-.891-1.253-1.98-1.253-3.168 0-1.188.482-2.278 1.253-3.169.77-.89 1.927-1.287 2.987-1.287 1.156 0 2.216.396 3.083 1.287l1.06 1.09a.914.914 0 0 0 1.349 0l.963-1.09c.867-.792 1.927-1.287 3.18-1.287 1.156 0 2.216.495 3.083 1.287.77.891 1.252 1.98 1.252 3.169 0 1.188-.482 2.277-1.349 3.168z"/>
    </defs>
    <g fill="none" fill-rule="evenodd">
        <mask id="b" fill="#fff">
            <use xlink:href="#a"/>
        </mask>
        <use fill="#000" fill-rule="nonzero" xlink:href="#a"/>
        <g fill="#000" mask="url(#b)">
            <path d="M0 0h24v24H0z"/>
        </g>
    </g>
</svg>
