<svg xmlns="http://www.w3.org/2000/svg" xmlns:xlink="http://www.w3.org/1999/xlink" width="24" height="24" viewBox="0 0 24 24">
    <defs>
        <path id="a" d="M18 15c-1.1 0-2.1.5-2.8 1.2l-5.3-3.1c0-.4.1-.7.1-1.1 0-.4-.1-.7-.2-1.1l5.3-3.1c.8.7 1.8 1.2 2.9 1.2 2.2 0 4-1.8 4-4s-1.8-4-4-4-4 1.8-4 4c0 .4.1.7.2 1.1L8.8 9.2C8.1 8.5 7.1 8 6 8c-2.2 0-4 1.8-4 4s1.8 4 4 4c1.1 0 2.1-.5 2.8-1.2l5.3 3.1c0 .4-.1.7-.1 1.1 0 2.2 1.8 4 4 4s4-1.8 4-4-1.8-4-4-4zm0-12c1.1 0 2 .9 2 2s-.9 2-2 2-2-.9-2-2 .9-2 2-2zM6 14c-1.1 0-2-.9-2-2s.9-2 2-2 2 .9 2 2-.9 2-2 2zm12 7c-1.1 0-2-.9-2-2 0-.4.1-.7.3-1 .3-.6 1-1 1.7-1 1.1 0 2 .9 2 2s-.9 2-2 2z"/>
    </defs>
    <g fill="none" fill-rule="evenodd">
        <mask id="b" fill="#fff">
            <use xlink:href="#a"/>
        </mask>
        <use fill="#000" fill-rule="nonzero" xlink:href="#a"/>
        <g fill="#000" mask="url(#b)">
            <path d="M0 0h24v24H0z"/>
        </g>
    </g>
</svg>
